<?xml version="1.0" standalone="no"?><!DOCTYPE svg PUBLIC "-//W3C//DTD SVG 1.1//EN" "http://www.w3.org/Graphics/SVG/1.1/DTD/svg11.dtd"><svg t="1700718130668" class="icon" viewBox="0 0 1229 1024" version="1.1" xmlns="http://www.w3.org/2000/svg" p-id="15533" xmlns:xlink="http://www.w3.org/1999/xlink" width="240.0390625" height="200"><path d="M1055.881551 291.934496c0 266.4704-527.966549 620.363916-527.966549 620.363916S0 571.162692 0 291.934496C0 91.211846 130.722301 0.000052 291.934445 0.000052a290.027219 290.027219 0 0 1 194.073132 74.330267l-134.43366 195.181385a21.830006 21.830006 0 0 0 6.185598 30.927989l200.078317 128.583115-92.062315 111.134575a21.830006 21.830006 0 0 0-4.175278 20.077419l51.546648 177.707071a21.907326 21.907326 0 0 0 21.005259 15.799048 22.190832 22.190832 0 0 0 5.154665-0.61856 21.907326 21.907326 0 0 0 16.366061-25.438271l-31.288815-161.676063 131.443954-132.010967a21.881552 21.881552 0 0 0-2.036093-32.706349l-173.145193-134.974899 188.016401-225.825868a21.855779 21.855779 0 0 0 2.036093-25.103218 291.702485 291.702485 0 0 1 385.182332 276.54777z m0 0" fill="#E71F19" p-id="15534"></path></svg>