<?xml version="1.0" standalone="no"?><!DOCTYPE svg PUBLIC "-//W3C//DTD SVG 1.1//EN" "http://www.w3.org/Graphics/SVG/1.1/DTD/svg11.dtd"><svg t="1700569914769" class="icon" viewBox="0 0 1024 1024" version="1.1" xmlns="http://www.w3.org/2000/svg" p-id="5835" xmlns:xlink="http://www.w3.org/1999/xlink" width="200" height="200"><path d="M717.219 306.223a35.98 35.98 0 0 0-50.92 0.093L512 460.986l-154.298-154.67a35.98 35.98 0 0 0-51.014 50.78L461.265 512l-154.53 154.903a35.98 35.98 0 0 0 51.013 50.781L512 563.014l154.298 154.763a35.84 35.84 0 0 0 50.92 0.094c14.104-13.964 14.104-36.771 0.094-50.875L562.735 512l154.437-154.903a35.933 35.933 0 0 0 0-50.874zM512 0C229.19 0 0 229.19 0 512s229.19 512 512 512 512-229.19 512-512S794.81 0 512 0z m311.11 823.11a437.713 437.713 0 0 1-139.916 94.3A435.759 435.759 0 0 1 512 951.995a437.48 437.48 0 0 1-171.194-34.49 440.46 440.46 0 0 1-139.916-94.301 437.713 437.713 0 0 1-94.3-139.916A436.596 436.596 0 0 1 72.005 512c0-59.392 11.636-117.015 34.49-171.194a440.46 440.46 0 0 1 94.301-139.916 437.713 437.713 0 0 1 139.916-94.3A436.596 436.596 0 0 1 512 72.005c59.392 0 117.015 11.636 171.194 34.49a440.46 440.46 0 0 1 139.916 94.301 437.713 437.713 0 0 1 94.3 139.916A436.596 436.596 0 0 1 951.995 512a437.48 437.48 0 0 1-128.93 311.11z" fill="#D81E06" p-id="5836"></path></svg>