<?xml version="1.0" standalone="no"?><!DOCTYPE svg PUBLIC "-//W3C//DTD SVG 1.1//EN" "http://www.w3.org/Graphics/SVG/1.1/DTD/svg11.dtd"><svg t="1700575328427" class="icon" viewBox="0 0 1024 1024" version="1.1" xmlns="http://www.w3.org/2000/svg" p-id="5695" xmlns:xlink="http://www.w3.org/1999/xlink" width="200" height="200"><path d="M0 0h1024v1024H0V0z" fill="#202425" opacity=".01" p-id="5696"></path><path d="M102.4 119.466667A51.2 51.2 0 0 1 153.6 68.266667h716.8a51.2 51.2 0 0 1 0 102.4 17.749333 17.749333 0 0 0-17.476267 17.066666c-6.894933 139.912533-98.030933 257.672533-223.709866 303.616A22.186667 22.186667 0 0 0 614.4 512a22.186667 22.186667 0 0 0 14.813867 20.650667c125.678933 45.943467 216.814933 163.703467 223.709866 303.616a17.749333 17.749333 0 0 0 17.476267 17.066666 51.2 51.2 0 0 1 0 102.4h-716.8a51.2 51.2 0 0 1 0-102.4 17.749333 17.749333 0 0 0 17.476267-17.066666c6.894933-139.912533 98.030933-257.672533 223.709866-303.616A22.186667 22.186667 0 0 0 409.6 512a22.186667 22.186667 0 0 0-14.813867-20.650667C269.1072 445.405867 177.9712 327.645867 171.076267 187.733333A17.749333 17.749333 0 0 0 153.6 170.666667 51.2 51.2 0 0 1 102.4 119.466667z" fill="#FF7744" p-id="5697"></path><path d="M273.066667 197.2224c0-14.677333 11.8784-26.555733 26.555733-26.555733h424.7552c14.677333 0 26.555733 11.8784 26.555733 26.555733a212.48 212.48 0 0 1-140.322133 199.850667C576.034133 409.531733 546.133333 438.613333 546.133333 475.374933V682.666667a68.266667 68.266667 0 0 0 68.266667 68.266666h85.333333a51.2 51.2 0 0 1 0 102.4h-375.466666a51.2 51.2 0 0 1 0-102.4H409.6a68.266667 68.266667 0 0 0 68.266667-68.266666v-207.291734c0-36.7616-29.9008-65.8432-64.477867-78.301866A212.48 212.48 0 0 1 273.066667 197.2224z" fill="#FFAA44" p-id="5698"></path><path d="M273.066667 221.866667A51.2 51.2 0 0 1 324.266667 170.666667h375.466666a51.2 51.2 0 0 1 0 102.4h-375.466666A51.2 51.2 0 0 1 273.066667 221.866667z" fill="#FFFFFF" p-id="5699"></path></svg>