<?xml version="1.0" standalone="no"?><!DOCTYPE svg PUBLIC "-//W3C//DTD SVG 1.1//EN" "http://www.w3.org/Graphics/SVG/1.1/DTD/svg11.dtd"><svg t="1700569875165" class="icon" viewBox="0 0 1062 1024" version="1.1" xmlns="http://www.w3.org/2000/svg" p-id="1454" xmlns:xlink="http://www.w3.org/1999/xlink" width="207.421875" height="200"><path d="M340.348542 1024a35.145175 35.145175 0 0 1-13.766848-2.779844A531.082638 531.082638 0 1 1 1062.247637 531.438061a536.973261 536.973261 0 0 1-308.033225 489.252601 35.409922 35.409922 0 0 1-29.519299-64.33354 466.021044 466.021044 0 0 0 266.798868-424.852874 458.740499 458.740499 0 1 0-637.246217 424.52194 35.409922 35.409922 0 0 1-13.899222 67.973812" fill="#09BB07" p-id="1455"></path><path d="M443.599903 697.63304a76.379532 76.379532 0 0 1-52.221362-20.319339L263.836637 572.407672a33.622879 33.622879 0 0 1-3.838833-48.779649 37.263151 37.263151 0 0 1 50.897626-3.706459L440.092004 626.283702c2.647471 2.44891 4.30214 2.382724 5.294941 1.456109l308.56272-270.571514a37.196964 37.196964 0 0 1 50.963812 2.184164 33.622879 33.622879 0 0 1-2.25035 48.912022L494.365155 678.57125a76.048598 76.048598 0 0 1-50.699066 19.06179" fill="#09BB07" p-id="1456"></path></svg>